<svg xmlns="http://www.w3.org/2000/svg" viewBox="0 0 351.51 313.69"><defs><style>.cls-1{fill:#565957;}.cls-2{fill:none;}</style></defs><g id="Layer_2" data-name="Layer 2"><g id="レイヤー_1" data-name="レイヤー 1"><path class="cls-1" d="M201.18,256.18A108.43,108.43,0,1,1,309.61,147.75,108.55,108.55,0,0,1,201.18,256.18Zm0-205.76a97.33,97.33,0,1,0,97.33,97.33A97.44,97.44,0,0,0,201.18,50.42Z"/><polygon class="cls-1" points="35.45 253.55 323.74 0 215.68 253.55 185.29 253.07 256.98 91.91 79.24 253.55 35.45 253.55"/><path class="cls-1" d="M79.24,253.55S179,178.21,319.45,163.21c0,0-106.3,5.22-207.37,49.86Z"/><path class="cls-1" d="M8.58,313s7.33-16,32.57-20.57A80,80,0,0,0,3.88,307.59Z"/><path class="cls-1" d="M85.85,306s7.33-16,32.57-20.58a80.09,80.09,0,0,0-37.27,15.14Z"/><path class="cls-1" d="M205.86,306s7.33-16,32.58-20.58a80.06,80.06,0,0,0-37.27,15.14Z"/><path class="cls-1" d="M43.05,273.25H50.9l-7,39.77H36Z"/><path class="cls-1" d="M76.64,301.6c-.78,4.24-1.61,6.24-3.51,8.25-2.39,2.56-5.85,3.79-10.47,3.79-7.52,0-11.37-3.29-11.37-9.75a35.82,35.82,0,0,1,.67-6.47l1.95-10.8c1-5.74,2-8.14,4.29-10.42,2.45-2.4,5.57-3.46,10-3.46,7.25,0,11.2,3.18,11.2,9.09a13.21,13.21,0,0,1-.28,2.78l-7.24.22A11.66,11.66,0,0,0,72,283.5c0-3.12-1.17-4.4-3.95-4.4-3.74,0-5.35,2.22-6.58,9.24L59.7,298a32.82,32.82,0,0,0-.55,5c0,2.9,1.22,4.24,4,4.24,3.29,0,5.18-1.84,6.24-6.13Z"/><path class="cls-1" d="M103.27,273.24l-2.89,16.5L99.2,296.2l-3,16.82h7.86l7-39.78ZM78.7,313h7.85l3-16.82,1.17-6.46,2.9-16.5H85.72Z"/><path class="cls-1" d="M118.53,273.25h7.86l-7,39.77h-7.86Z"/><path class="cls-1" d="M146.83,273.25h7.8l-2.73,15.48,12.76-15.48h8.86l-14.43,16.38,7.8,23.39h-8.63l-5.13-17.94-2.95,3.63L147.61,313h-7.79Z"/><path class="cls-1" d="M173,286c.95-5.23,1.89-7.52,4.12-9.8,2.45-2.51,5.63-3.57,10.47-3.57,8.14,0,12.09,3.23,12.09,9.92a36,36,0,0,1-.61,5.68l-2.12,12c-.94,5.23-1.89,7.57-4.12,9.8-2.45,2.45-5.63,3.57-10.42,3.57-8.24,0-12.14-3.18-12.14-9.92a35.37,35.37,0,0,1,.61-5.68Zm18.27,1.79a30.59,30.59,0,0,0,.56-4.68c0-2.79-1.51-4.18-4.46-4.18-4.07,0-5.63,2-6.85,8.86l-1.89,10.69a29.46,29.46,0,0,0-.51,4.63c0,2.84,1.51,4.23,4.4,4.23,4.13,0,5.69-2,6.91-8.86Z"/><path class="cls-1" d="M223.61,273.24l-2.9,16.5-1.17,6.46L216.59,313h7.85l7-39.78ZM199,313h7.85l3-16.82,1.17-6.46,2.9-16.5h-7.85Z"/><path class="cls-1" d="M237.42,301.88c.33,4,1.89,5.46,5.57,5.46,2.73,0,4.46-.83,5.46-2.67a8.94,8.94,0,0,0,1-4,3.29,3.29,0,0,0-1.33-2.84c-.84-.56-.84-.56-4.91-1.84-5.46-1.67-8.13-5-8.13-9.86a15.34,15.34,0,0,1,3.18-9.53c2.34-2.67,5.45-3.95,9.8-3.95,4.62,0,8,1.34,9.75,3.79.95,1.39,1.34,2.84,1.5,5.46l-6.9,1.89a8.09,8.09,0,0,0-.9-3.06,4,4,0,0,0-3.67-1.79c-3.12,0-5,2.29-5,6a3.4,3.4,0,0,0,1.12,2.84c.83.83,1.39,1.11,4.29,2.06,6.46,2.17,9,5.07,9,10.42,0,3.67-1.17,7.24-3.18,9.41-2.51,2.73-6,4-11.14,4-5.35,0-9.08-1.33-10.86-3.95-1-1.4-1.45-3-1.62-5.91Z"/><path class="cls-1" d="M263,286c.95-5.23,1.89-7.52,4.12-9.8,2.45-2.51,5.63-3.57,10.48-3.57,8.13,0,12.09,3.23,12.09,9.92a36.15,36.15,0,0,1-.62,5.68l-2.11,12c-.95,5.23-1.9,7.57-4.13,9.8-2.45,2.45-5.62,3.57-10.41,3.57-8.25,0-12.15-3.18-12.15-9.92a35.37,35.37,0,0,1,.61-5.68Zm18.27,1.79a30.59,30.59,0,0,0,.56-4.68c0-2.79-1.5-4.18-4.46-4.18-4.06,0-5.62,2-6.85,8.86l-1.89,10.69a29.2,29.2,0,0,0-.5,4.63c0,2.84,1.5,4.23,4.4,4.23,4.12,0,5.68-2,6.91-8.86Z"/><path class="cls-1" d="M297.2,273.25H305l-2.73,15.48L315,273.25h8.86l-14.43,16.38,7.8,23.39h-8.63l-5.13-17.94-2.95,3.63L298,313h-7.8Z"/><path class="cls-1" d="M333.58,273.25,329,299.37a27.5,27.5,0,0,0-.5,4.18c0,2.57,1.28,3.79,4.07,3.79s4-.72,5.12-2.84a16,16,0,0,0,1.4-5.13l4.62-26.12h7.85l-4.84,27.52c-.95,5.35-1.62,7-3.51,9-2.56,2.73-5.68,3.85-10.87,3.85-4.84,0-7.74-1-9.69-3.29a8.76,8.76,0,0,1-2-6,39.92,39.92,0,0,1,.73-6.35l4.4-24.79Z"/><polyline class="cls-2" points="23.12 299.04 21.73 283.11 14.65 299.04"/><polygon class="cls-1" points="26.91 273.25 0 313.02 8.58 313.02 21.64 292.71 24.29 313.02 32.65 313.02 26.91 273.25"/><line class="cls-2" x1="90.68" y1="289.74" x2="89.51" y2="296.2"/><line class="cls-2" x1="100.38" y1="289.74" x2="99.2" y2="296.2"/><line class="cls-2" x1="211.01" y1="289.74" x2="209.84" y2="296.2"/><line class="cls-2" x1="220.71" y1="289.74" x2="219.54" y2="296.2"/></g></g></svg>